<svg width="40" height="40" viewBox="0 0 40 40" fill="none" xmlns="http://www.w3.org/2000/svg">
<rect width="40" height="40" rx="4" fill="#0D78C8"/>
<path d="M10.7608 20.2435C10.754 20.196 10.72 20.1633 10.6781 20.1633C10.636 20.1633 10.6011 20.197 10.5953 20.2435L10.3999 22.029L10.5953 23.7751C10.6009 23.8219 10.6357 23.8557 10.6781 23.8557C10.7198 23.8557 10.7538 23.8228 10.7606 23.7755L10.983 22.029L10.7608 20.2435Z" fill="white"/>
<path d="M13.8406 18.5964C13.7605 18.5964 13.6942 18.662 13.6903 18.7454L13.5347 22.0305L13.6903 24.1535C13.6944 24.2365 13.7605 24.3019 13.8406 24.3019C13.9204 24.3019 13.9865 24.2363 13.9912 24.1531V24.1537L14.1671 22.0305L13.9912 18.7454C13.9865 18.662 13.9204 18.5964 13.8406 18.5964Z" fill="white"/>
<path d="M12.2467 19.7382C12.1851 19.7382 12.1348 19.7873 12.1299 19.853L11.9546 22.0296L12.1299 24.1355C12.1346 24.2008 12.1851 24.2499 12.2467 24.2499C12.3076 24.2499 12.3578 24.2008 12.3632 24.1355L12.5625 22.0296L12.3632 19.8526C12.3578 19.7873 12.3076 19.7382 12.2467 19.7382Z" fill="white"/>
<path d="M15.4605 24.3017C15.56 24.3017 15.6408 24.2215 15.6448 24.1188L15.7975 22.0316L15.6451 17.6579C15.641 17.5553 15.5602 17.4751 15.4607 17.4751C15.3605 17.4751 15.2794 17.5555 15.2762 17.6581L15.1409 22.0313L15.2762 24.1195C15.2794 24.2213 15.3605 24.3017 15.4605 24.3017Z" fill="white"/>
<path d="M18.7769 24.3115C18.9137 24.3115 19.0266 24.1989 19.0292 24.0603L19.1357 22.0329L19.0292 16.9816C19.0269 16.8433 18.9137 16.7304 18.7769 16.7304C18.6398 16.7304 18.5267 16.8431 18.5246 16.9819L18.4294 22.0312C18.4294 22.0344 18.5246 24.0616 18.5246 24.0616C18.5267 24.1989 18.6401 24.3115 18.7769 24.3115Z" fill="white"/>
<path d="M17.1062 24.3036C17.2253 24.3036 17.3213 24.208 17.3245 24.0862V24.0877L17.4541 22.032L17.3243 17.6267C17.3211 17.5048 17.2251 17.4095 17.106 17.4095C16.986 17.4095 16.89 17.5048 16.8875 17.6267L16.7722 22.0322L16.8877 24.0874C16.8902 24.208 16.9862 24.3036 17.1062 24.3036Z" fill="white"/>
<path d="M27.1548 19.4258C26.8197 19.4258 26.5001 19.4936 26.2088 19.6156C26.0143 17.4116 24.166 15.6827 21.9115 15.6827C21.3599 15.6827 20.8221 15.7913 20.3472 15.975C20.1627 16.0464 20.1135 16.1199 20.1118 16.2626L20.1118 24.0241C20.1137 24.1738 20.2298 24.2985 20.3759 24.3132C20.3821 24.3139 27.1109 24.3173 27.1546 24.3173C28.505 24.3173 29.6 23.2223 29.6 21.8716C29.6 20.521 28.5052 19.4258 27.1548 19.4258Z" fill="white"/>
</svg>
