<svg width="40" height="40" viewBox="0 0 40 40" fill="none" xmlns="http://www.w3.org/2000/svg">
<rect width="40" height="40" rx="4" fill="#6ECEBC"/>
<g clip-path="url(#clip0_1_498)">
<path d="M18 11L12 11V13L18 13V11Z" fill="white"/>
<path d="M14 15L9 15V17H14V15Z" fill="white"/>
<path d="M16 27H11V29H16V27Z" fill="white"/>
<path d="M30.21 26.61L27.93 22.51C27.66 22.03 27.2 21.68 26.67 21.54L23.98 20.87C23.96 20.4 23.84 19.95 23.61 19.54L27.57 12.95C28.22 11.87 27.87 10.47 26.79 9.82C26.43 9.6 26.02 9.5 25.62 9.5C25.06 9.5 24.5 9.71 24.06 10.12L20.63 13.33C20.23 13.7 20 14.23 20 14.78V18.18C19.53 18.35 19.11 18.63 18.77 19H11.28C10.02 19 9 20.02 9 21.28C9 22.3 9.67 23.19 10.65 23.47L15.16 24.76C15.34 24.81 15.53 24.84 15.71 24.84C16.07 24.84 16.43 24.74 16.74 24.55L18.98 23.21C19.27 23.47 19.61 23.68 20 23.82L20 29C18.9 29 18 29.9 18 31H24C24 29.9 23.1 29 22 29L22 24.72L26.61 29.33C27.06 29.78 27.64 30 28.22 30C28.8 30 29.39 29.78 29.83 29.33C30.55 28.61 30.71 27.5 30.21 26.61ZM15.72 22.84L11.2 21.55C11.08 21.52 11 21.4 11 21.28C11 21.13 11.13 21 11.28 21H18.01C18.01 21.15 18.02 21.3 18.04 21.44L15.72 22.84ZM21 22C20.45 22 20 21.55 20 21C20 20.45 20.45 20 21 20C21.55 20 22 20.45 22 21C22 21.55 21.55 22 21 22ZM22 18.14V14.78L25.43 11.57C25.48 11.52 25.62 11.45 25.77 11.53C25.9 11.61 25.95 11.78 25.87 11.91L22.13 18.15L22 18.14ZM28.42 27.92C28.37 27.97 28.18 28.08 28.02 27.92L23.17 23.07C23.25 22.98 23.33 22.89 23.41 22.79L26.19 23.48L28.47 27.58C28.53 27.69 28.51 27.83 28.42 27.92Z" fill="white"/>
</g>
<defs>
<clipPath id="clip0_1_498">
<rect width="24" height="24" fill="white" transform="translate(8 8)"/>
</clipPath>
</defs>
</svg>
