<svg width="238" height="103" viewBox="0 0 238 103" fill="none" xmlns="http://www.w3.org/2000/svg">
<mask id="mask0_1_66" style="mask-type:luminance" maskUnits="userSpaceOnUse" x="-1" y="-11" width="241" height="126">
<path d="M239.349 39.8727L16.0557 -10.8854L-0.768365 63.5278L222.525 114.286L239.349 39.8727Z" fill="white"/>
</mask>
<g mask="url(#mask0_1_66)">
<path d="M230.34 79.7168L138.376 65.8296C138.376 65.8296 139.075 63.0854 139.165 59.2715C144.821 58.7951 159.352 57.4432 159.273 56.0837C159.195 54.7645 145.501 54.735 139.002 55.1298C138.271 48.4163 135.046 40.4651 124.503 37.3178C126.157 30.1353 129.495 14.7158 127.711 14.5005C125.938 14.2778 123.441 29.5279 122.366 36.7819C110.475 34.2091 104.592 40.8608 101.708 47.3531C96.2238 44.3545 84.7448 38.2512 83.8108 39.1401C82.8977 40.0238 94.4562 47.3966 100.338 51.0462C99.1971 54.8213 98.9906 57.8378 98.9906 57.8378L7.04734 28.9587L39.5817 42.4511C39.4482 42.6911 39.3335 42.9353 39.2711 43.2114C38.9223 44.754 39.8747 46.2819 41.4011 46.6289C42.8804 46.9652 44.3535 46.0586 44.7552 44.5882L57.1457 49.7274C57.083 49.8733 57.0297 50.0214 56.9952 50.1737C56.6465 51.7163 57.5988 53.2442 59.1253 53.5912C60.4915 53.9018 61.8388 53.1568 62.362 51.8942L69.5173 54.8622L68.8585 57.7759C63.2522 56.5015 57.6614 60.066 56.3804 65.7315C55.0995 71.397 58.6108 77.0306 64.2171 78.305C69.8235 79.5794 75.4143 76.0149 76.6952 70.3494C77.5886 66.3979 76.1566 62.4783 73.3028 60.0276L74.0455 56.7425L98.8213 66.9997C98.8213 66.9997 102.308 76.9925 113.935 79.6356C125.553 82.2765 132.04 74.7911 132.04 74.7911L159.068 76.1396L158.345 79.3389C154.725 80.3182 151.736 83.2427 150.845 87.1848C149.564 92.8503 153.075 98.4838 158.681 99.7582C164.288 101.033 169.874 97.4872 171.155 91.8217C172.436 86.1562 168.925 80.5226 163.319 79.2482L163.962 76.4012L172.858 76.8415C172.694 78.266 173.606 79.6245 175.029 79.9479C176.555 80.2949 178.071 79.3281 178.42 77.7856C178.47 77.5666 178.489 77.3506 178.489 77.1305L191.929 77.8029C191.92 77.841 191.902 77.8769 191.894 77.915C191.545 79.4576 192.497 80.9855 194.024 81.3325C195.55 81.6795 197.066 80.7127 197.415 79.1702C197.499 78.7988 197.503 78.4294 197.445 78.0756L230.34 79.7168Z" fill="#6C6CFF"/>
</g>
</svg>
