<svg width="47" height="26" viewBox="0 0 47 26" fill="none" xmlns="http://www.w3.org/2000/svg">
<g clip-path="url(#clip0_1_3773)">
<path d="M42.5823 -2.63101H4.21777C2.02589 -2.63101 0.249023 -0.882572 0.249023 1.27424V24.7057C0.249023 26.8625 2.02589 28.611 4.21777 28.611H42.5823C44.7742 28.611 46.551 26.8625 46.551 24.7057V1.27424C46.551 -0.882572 44.7742 -2.63101 42.5823 -2.63101Z" fill="#1F72CD"/>
<path fill-rule="evenodd" clip-rule="evenodd" d="M8.54795 8.43878L4.21582 17.8722H9.40197L10.0449 16.3682H11.5145L12.1574 17.8722H17.8659V16.7243L18.3746 17.8722H21.3275L21.8361 16.7V17.8722H33.7083L35.1518 16.4072L36.5036 17.8722L42.6013 17.8844L38.2556 13.1819L42.6013 8.43878H36.5981L35.1928 9.87675L33.8838 8.43878H20.9684L19.8594 10.8736L18.7243 8.43878H13.549V9.5477L12.9733 8.43878H8.54795ZM26.2766 9.77835H33.0941L35.1793 11.9947L37.3316 9.77835H39.4168L36.2486 13.1805L39.4168 16.5435H37.2371L35.1518 14.3014L32.9886 16.5435H26.2766V9.77835ZM27.9601 12.4157V11.18V11.1788H32.2141L34.0703 13.155L32.1318 15.142H27.9601V13.7929H31.6793V12.4157H27.9601ZM9.55142 9.77835H12.0794L14.9529 16.1752V9.77835H17.7222L19.9416 14.3649L21.9871 9.77835H24.7426V16.5475H23.0659L23.0522 11.2432L20.6079 16.5475H19.108L16.65 11.2432V16.5475H13.2008L12.5469 15.0299H9.01405L8.3615 16.5461H6.51345L9.55142 9.77835ZM9.6173 13.6269L10.7812 10.9236L11.9438 13.6269H9.6173Z" fill="white"/>
</g>
<defs>
<clipPath id="clip0_1_3773">
<rect width="47" height="26" fill="white"/>
</clipPath>
</defs>
</svg>
