<svg width="14" height="13" viewBox="0 0 14 13" fill="none" xmlns="http://www.w3.org/2000/svg">
<path d="M8.33301 3.00001V1.66668L5.66634 1.66668L5.66634 3.00001L8.33301 3.00001ZM1.66634 4.33334L1.66634 11.6667L12.333 11.6667L12.333 4.33334L1.66634 4.33334ZM12.333 3.00001C13.073 3.00001 13.6663 3.59334 13.6663 4.33334L13.6663 11.6667C13.6663 12.4067 13.073 13 12.333 13L1.66634 13C0.926341 13 0.333008 12.4067 0.333008 11.6667L0.339674 4.33334C0.339674 3.59334 0.926341 3.00001 1.66634 3.00001L4.33301 3.00001V1.66668C4.33301 0.926677 4.92634 0.333344 5.66634 0.333344L8.33301 0.333344C9.07301 0.333344 9.66634 0.926677 9.66634 1.66668V3.00001L12.333 3.00001Z" fill="#0EA776"/>
</svg>
