<svg width="20" height="20" viewBox="0 0 20 20" fill="none" xmlns="http://www.w3.org/2000/svg">
<g id="Frame">
<path id="Vector" d="M2.5 7.5L17.5 7.5" stroke="#565E6C" stroke-linecap="round" stroke-linejoin="round"/>
<path id="Vector_2" d="M16 4.5L4 4.5C3.60218 4.5 3.22064 4.65804 2.93934 4.93934C2.65804 5.22064 2.5 5.60218 2.5 6L2.5 15C2.5 15.3978 2.65804 15.7794 2.93934 16.0607C3.22064 16.342 3.60218 16.5 4 16.5L16 16.5C16.3978 16.5 16.7794 16.342 17.0607 16.0607C17.342 15.7794 17.5 15.3978 17.5 15V6C17.5 5.60218 17.342 5.22064 17.0607 4.93934C16.7794 4.65804 16.3978 4.5 16 4.5Z" stroke="#565E6C" stroke-linecap="round" stroke-linejoin="round"/>
<path id="Vector_3" d="M6.5 2.5L6.5 4.5" stroke="#565E6C" stroke-linecap="round" stroke-linejoin="round"/>
<path id="Vector_4" d="M13.5 2.5V4.5" stroke="#565E6C" stroke-linecap="round" stroke-linejoin="round"/>
</g>
</svg>
