<svg width="28" height="28" viewBox="0 0 28 28" fill="none" xmlns="http://www.w3.org/2000/svg">
<rect width="28" height="28" rx="14" fill="#11D295"/>
<path d="M17.8252 14.425L17.8252 20.375" stroke="white" stroke-width="0.85" stroke-linecap="round" stroke-linejoin="round"/>
<path d="M20.3749 7.625V11.875C20.3749 12.5513 20.1062 13.1999 19.628 13.6781C19.1498 14.1563 18.5012 14.425 17.8249 14.425C17.1486 14.425 16.5 14.1563 16.0218 13.6781C15.5436 13.1999 15.2749 12.5513 15.2749 11.875L15.2749 7.625" stroke="white" stroke-width="0.85" stroke-linecap="round" stroke-linejoin="round"/>
<path d="M17.8252 7.625L17.8252 11.875" stroke="white" stroke-width="0.85" stroke-linecap="round" stroke-linejoin="round"/>
<path d="M10.1748 14.425L10.1748 20.375" stroke="white" stroke-width="0.85" stroke-linecap="round" stroke-linejoin="round"/>
<path d="M12.725 10.175C12.725 8.76667 11.5833 7.625 10.175 7.625C8.76667 7.625 7.625 8.76667 7.625 10.175L7.625 11.875C7.625 13.2833 8.76667 14.425 10.175 14.425C11.5833 14.425 12.725 13.2833 12.725 11.875L12.725 10.175Z" stroke="white" stroke-width="0.85" stroke-linecap="round" stroke-linejoin="round"/>
</svg>
