<svg width="24" height="24" viewBox="0 0 24 24" fill="none" xmlns="http://www.w3.org/2000/svg">
<path d="M13.7141 6.85712L21.4284 6.85712L21.4284 21.4285L2.57129 21.4285L2.57129 6.85712L10.2856 6.85712" stroke="#6C6CFF" stroke-width="2.05714" stroke-miterlimit="10" stroke-linecap="square"/>
<path d="M13.7147 8.57141H10.2861L10.2861 4.2857C10.2861 3.33855 11.0533 2.57141 12.0004 2.57141C12.9476 2.57141 13.7147 3.33855 13.7147 4.2857L13.7147 8.57141Z" stroke="#6C6CFF" stroke-width="2.05714" stroke-miterlimit="10" stroke-linecap="square"/>
<path d="M14.5713 12.8571H17.9999" stroke="#6C6CFF" stroke-width="2.05714" stroke-miterlimit="10" stroke-linecap="square"/>
<path d="M14.5713 16.2857H17.9999" stroke="#6C6CFF" stroke-width="2.05714" stroke-miterlimit="10" stroke-linecap="square"/>
<path d="M5.14258 18C5.14258 16.5797 6.29372 15.4286 7.71401 15.4286L9.42829 15.4286C10.8486 15.4286 11.9997 16.5797 11.9997 18H5.14258Z" fill="#6C6CFF"/>
<path d="M8.57171 14.5715C9.51848 14.5715 10.286 13.8039 10.286 12.8572C10.286 11.9104 9.51848 11.1429 8.57171 11.1429C7.62493 11.1429 6.85742 11.9104 6.85742 12.8572C6.85742 13.8039 7.62493 14.5715 8.57171 14.5715Z" fill="#6C6CFF"/>
</svg>
