<svg width="24" height="24" viewBox="0 0 24 24" fill="none" xmlns="http://www.w3.org/2000/svg">
<path d="M14.7798 20.9263L20.9272 14.7788C21.5967 14.1094 21.5967 13.0243 20.9272 12.3548L11.143 2.57141L2.57153 2.57141L2.57153 11.1428L12.355 20.9263C13.0244 21.5957 14.1095 21.5957 14.779 20.9263H14.7798Z" stroke="#11D396" stroke-width="2.05714" stroke-miterlimit="10" stroke-linecap="square"/>
<path d="M7.71429 9.42857C8.66106 9.42857 9.42857 8.66106 9.42857 7.71429C9.42857 6.76751 8.66106 6 7.71429 6C6.76751 6 6 6.76751 6 7.71429C6 8.66106 6.76751 9.42857 7.71429 9.42857Z" stroke="#11D396" stroke-width="2.05714" stroke-miterlimit="10" stroke-linecap="square"/>
<path d="M12.8572 10.2858L16.2857 13.7143" stroke="#11D396" stroke-width="2.05714" stroke-miterlimit="10" stroke-linecap="square"/>
<path d="M10.2856 12.8572L13.7142 16.2857" stroke="#11D396" stroke-width="2.05714" stroke-miterlimit="10" stroke-linecap="square"/>
</svg>
