<svg width="43" height="26" viewBox="0 0 43 26" fill="none" xmlns="http://www.w3.org/2000/svg">
<g clip-path="url(#clip0_1_3786)">
<path d="M26.8839 2.81903L15.7803 2.857L16.1167 23.0812L27.2204 23.0431L26.8839 2.81903Z" fill="#FF5F00"/>
<path d="M16.5142 13.0147C16.4455 8.90123 18.2977 5.2463 21.1987 2.87554C19.0089 1.16601 16.2637 0.138007 13.2878 0.148146C6.23768 0.172167 0.630032 5.95038 0.748927 13.0684C0.867822 20.1863 6.66785 25.9257 13.718 25.9017C16.6939 25.8915 19.4045 24.8449 21.5368 23.1206C18.5575 20.8058 16.5829 17.1281 16.5142 13.0147Z" fill="#EB001B"/>
<path d="M42.2519 12.8317C42.3707 19.9497 36.7631 25.7278 29.713 25.752C26.737 25.762 23.9919 24.734 21.8021 23.0246C24.7386 20.6537 26.5553 16.9988 26.4865 12.8854C26.4177 8.77197 24.4438 5.13009 21.4639 2.77937C23.5963 1.0551 26.3068 0.00850455 29.2828 -0.00163431C36.3329 -0.0256574 42.1336 5.74946 42.2519 12.8317Z" fill="#F79E1B"/>
</g>
<defs>
<clipPath id="clip0_1_3786">
<rect width="43" height="26" fill="white"/>
</clipPath>
</defs>
</svg>
