<svg width="20" height="20" viewBox="0 0 20 20" fill="none" xmlns="http://www.w3.org/2000/svg">
<path d="M6.318 11C5.47312 11.4098 4.76071 12.0492 4.26234 12.845C3.76396 13.6409 3.49977 14.561 3.5 15.5C3.5 15.5 5.5 17.5 10 17.5C14.5 17.5 16.5 15.5 16.5 15.5C16.5001 14.5609 16.2358 13.6407 15.7372 12.8449C15.2387 12.049 14.5261 11.4096 13.681 11" stroke="#6C6CFF" stroke-linecap="round" stroke-linejoin="round"/>
<path d="M13.5 6C13.5 7.933 11.933 10.5 10 10.5C8.067 10.5 6.5 7.933 6.5 6C6.5 5.07174 6.86875 4.1815 7.52513 3.52513C8.1815 2.86875 9.07174 2.5 10 2.5C10.9283 2.5 11.8185 2.86875 12.4749 3.52513C13.1313 4.1815 13.5 5.07174 13.5 6Z" stroke="#6C6CFF" stroke-linecap="round" stroke-linejoin="round"/>
</svg>
