<svg width="88" height="25" viewBox="0 0 88 25" fill="none" xmlns="http://www.w3.org/2000/svg">
<g clip-path="url(#clip0_1_3809)">
<path d="M14.9036 3.29852C13.8006 2.55114 12.3613 2.17654 10.5856 2.17654H3.71128C3.16694 2.17654 2.86621 2.44487 2.80908 2.981L0.0165781 20.2585C-0.0124448 20.4282 0.0306298 20.5834 0.145408 20.7244C0.25953 20.8658 0.403068 20.9361 0.574972 20.9361H3.84025C4.41296 20.9361 4.72774 20.6684 4.78551 20.1316L5.55876 15.4737C5.58701 15.2479 5.68773 15.0644 5.85964 14.923C6.03141 14.7819 6.24626 14.6897 6.50406 14.6475C6.76186 14.6055 7.00491 14.5843 7.23446 14.5843C7.46339 14.5843 7.73536 14.5986 8.05092 14.6267C8.3657 14.6548 8.56638 14.6687 8.6524 14.6687C11.1155 14.6687 13.0489 13.9846 14.4527 12.6149C15.8557 11.2459 16.5581 9.34758 16.5581 6.91906C16.5581 5.25343 16.0061 4.04706 14.9036 3.29852ZM11.3593 8.48642C11.2156 9.47469 10.8437 10.1237 10.2422 10.4343C9.64064 10.7454 8.78137 10.9002 7.66443 10.9002L6.24653 10.9424L6.9771 6.41113C7.03408 6.10088 7.22016 5.94554 7.53546 5.94554H8.35206C9.4972 5.94554 10.3284 6.10825 10.844 6.43234C11.3593 6.75725 11.5312 7.44212 11.3593 8.48642Z" fill="#003087"/>
<path d="M87.4345 2.17651H84.2555C83.9396 2.17651 83.7539 2.33184 83.6971 2.64262L80.9044 20.2592L80.8613 20.3439C80.8613 20.4857 80.9185 20.6192 81.0334 20.7463C81.1473 20.8731 81.2912 20.9367 81.4628 20.9367H84.299C84.842 20.9367 85.143 20.669 85.201 20.1323L87.9937 2.81206V2.76999C87.9937 2.37455 87.8067 2.17651 87.4345 2.17651Z" fill="#009CDE"/>
<path d="M49.0206 8.98734C49.0206 8.84648 48.9634 8.71213 48.8494 8.58541C48.7346 8.45843 48.6056 8.3945 48.4626 8.3945H45.1543C44.8388 8.3945 44.581 8.53636 44.3808 8.8179L39.8266 15.4243L37.9361 9.07226C37.7922 8.62088 37.4775 8.3945 36.991 8.3945H33.7681C33.6246 8.3945 33.4957 8.45817 33.3819 8.58541C33.2669 8.71213 33.21 8.84674 33.21 8.98734C33.21 9.04415 33.4893 9.87669 34.0477 11.4859C34.6061 13.0956 35.2076 14.8319 35.8521 16.6953C36.4967 18.5583 36.833 19.5469 36.8617 19.6589C34.5128 22.8213 33.3389 24.5152 33.3389 24.7407C33.3389 25.108 33.5247 25.2913 33.8975 25.2913H37.2057C37.5206 25.2913 37.7783 25.1505 37.9792 24.868L48.9352 9.28363C48.9924 9.22769 49.0206 9.12946 49.0206 8.98734Z" fill="#003087"/>
<path d="M79.8274 8.38946H76.5621C76.1604 8.38946 75.918 8.85544 75.8317 9.78729C75.0864 8.65834 73.7268 8.09308 71.7499 8.09308C69.6876 8.09308 67.9329 8.85545 66.487 10.38C65.0403 11.9045 64.3174 13.6978 64.3174 15.7585C64.3174 17.4245 64.8115 18.7512 65.7993 19.739C66.7875 20.7277 68.1119 21.2212 69.7738 21.2212C70.6045 21.2212 71.4493 21.0515 72.3087 20.713C73.168 20.3742 73.8403 19.9228 74.3283 19.3579C74.3283 19.3862 74.2988 19.5128 74.2425 19.7386C74.1844 19.9649 74.1562 20.1348 74.1562 20.2467C74.1562 20.699 74.3419 20.9242 74.715 20.9242H77.6797C78.2231 20.9242 78.5386 20.6566 78.6244 20.1198L80.3862 9.06695C80.4143 8.89738 80.3717 8.74247 80.2573 8.60109C80.142 8.46028 79.999 8.38946 79.8274 8.38946ZM74.2205 16.7324C73.4901 17.4382 72.6092 17.7909 71.5783 17.7909C70.7471 17.7909 70.0748 17.5654 69.5587 17.1134C69.043 16.6627 68.7851 16.0415 68.7851 15.2501C68.7851 14.2064 69.1433 13.3233 69.8596 12.6035C70.5746 11.8836 71.4634 11.5237 72.5234 11.5237C73.3246 11.5237 73.9908 11.7566 74.521 12.2222C75.0507 12.6881 75.3165 13.3304 75.3165 14.1494C75.3161 15.1656 74.9509 16.0269 74.2205 16.7324Z" fill="#009CDE"/>
<path d="M31.0485 8.38946H27.7832C27.3816 8.38946 27.1386 8.85544 27.0526 9.78729C26.2792 8.65834 24.9186 8.09308 22.9709 8.09308C20.9086 8.09308 19.154 8.85545 17.7077 10.38C16.261 11.9045 15.5381 13.6978 15.5381 15.7585C15.5381 17.4245 16.0322 18.7512 17.0204 19.739C18.0087 20.7277 19.3331 21.2212 20.9946 21.2212C21.7962 21.2212 22.6274 21.0515 23.4865 20.713C24.3457 20.3742 25.0332 19.9228 25.5488 19.3579C25.4339 19.6964 25.3769 19.993 25.3769 20.2467C25.3769 20.699 25.563 20.9242 25.9354 20.9242H28.9C29.4438 20.9242 29.7592 20.6566 29.8452 20.1198L31.6067 9.06695C31.6349 8.89738 31.5921 8.74247 31.4778 8.60109C31.3632 8.46028 31.2202 8.38946 31.0485 8.38946ZM25.4416 16.7533C24.7111 17.4458 23.8156 17.7909 22.7565 17.7909C21.9253 17.7909 21.2594 17.5654 20.7585 17.1134C20.257 16.6627 20.0065 16.0415 20.0065 15.2501C20.0065 14.2064 20.3644 13.3233 21.0808 12.6035C21.7963 11.8836 22.6843 11.5236 23.7445 11.5236C24.5462 11.5236 25.2121 11.7566 25.7425 12.2222C26.272 12.6881 26.5373 13.3304 26.5373 14.1494C26.5372 15.194 26.1721 16.0624 25.4416 16.7533Z" fill="#003087"/>
<path d="M63.7155 3.29849C62.6124 2.55111 61.1736 2.17651 59.3973 2.17651H52.5659C51.993 2.17651 51.6775 2.44484 51.6208 2.98097L48.8281 20.2585C48.7991 20.4282 48.8422 20.5833 48.957 20.7244C49.0705 20.8658 49.2144 20.9361 49.3865 20.9361H52.9095C53.2532 20.9361 53.482 20.7528 53.5973 20.3857L54.3703 15.4736C54.3989 15.2479 54.4993 15.0644 54.6713 14.923C54.8433 14.7819 55.0576 14.6896 55.3159 14.6474C55.5733 14.6055 55.8166 14.5842 56.0463 14.5842C56.2751 14.5842 56.547 14.5986 56.8625 14.6267C57.1771 14.6548 57.3786 14.6686 57.464 14.6686C59.9275 14.6686 61.8605 13.9845 63.2641 12.6148C64.6677 11.2459 65.3695 9.34754 65.3695 6.91902C65.3695 5.25339 64.8177 4.0469 63.7155 3.29849ZM59.3115 10.2647C58.6815 10.6881 57.7359 10.8998 56.4762 10.8998L55.1012 10.9422L55.8316 6.41083C55.8883 6.10071 56.0745 5.94511 56.3899 5.94511H57.163C57.7931 5.94511 58.2943 5.97347 58.6674 6.02976C59.0387 6.08649 59.3973 6.26265 59.7414 6.55894C60.0851 6.85544 60.2567 7.28622 60.2567 7.85057C60.2567 9.03677 59.9412 9.84098 59.3115 10.2647Z" fill="#009CDE"/>
</g>
<defs>
<clipPath id="clip0_1_3809">
<rect width="88" height="25" fill="white"/>
</clipPath>
</defs>
</svg>
