<svg width="17" height="16" viewBox="0 0 17 16" fill="none" xmlns="http://www.w3.org/2000/svg">
<path d="M8.6499 4.8L8.6499 11.2" stroke="#565E6C" stroke-width="0.96" stroke-miterlimit="10" stroke-linecap="square"/>
<path d="M10.1741 6.1764C9.48012 5.8164 7.25132 5.544 7.25132 6.7844C7.25132 8.2696 10.0265 7.7444 10.0265 9.056C10.0265 10.3676 8.22292 10.268 6.97412 9.842" stroke="#565E6C" stroke-width="0.96" stroke-miterlimit="10" stroke-linecap="square"/>
<path d="M3.2971 5.2868C3.96121 3.9751 5.08368 2.95278 6.45156 2.41378C7.81944 1.87479 9.33757 1.85662 10.718 2.36272C12.0983 2.86881 13.245 3.86398 13.9403 5.15941C14.6356 6.45484 14.8312 7.96042 14.4901 9.39054C14.149 10.8207 13.2948 12.0758 12.0896 12.9179C10.8844 13.76 9.41203 14.1304 7.95182 13.9589C6.49162 13.7875 5.14515 13.086 4.16785 11.9876C3.19055 10.8892 2.65041 9.47024 2.6499 8" stroke="#565E6C" stroke-width="0.96" stroke-miterlimit="10"/>
<path d="M3.69688 2.088L3.29687 5.288L6.49687 4.888" stroke="#565E6C" stroke-width="0.96" stroke-miterlimit="10" stroke-linecap="square"/>
</svg>
