<svg width="20" height="20" viewBox="0 0 20 20" fill="none" xmlns="http://www.w3.org/2000/svg">
<path d="M13.5 7.5L6.5 7.5L6.5 12.5L13.5 12.5V7.5Z" stroke="#6C6CFF" stroke-miterlimit="10" stroke-linecap="round" stroke-linejoin="round"/>
<path d="M15.5 10C15.5 8.791 16.359 7.782 17.5 7.55V5.5C17.5 4.948 17.052 4.5 16.5 4.5L3.5 4.5C2.948 4.5 2.5 4.948 2.5 5.5L2.5 7.55C3.641 7.782 4.5 8.79 4.5 10C4.5 11.209 3.641 12.218 2.5 12.45L2.5 14.5C2.5 15.052 2.948 15.5 3.5 15.5L16.5 15.5C17.052 15.5 17.5 15.052 17.5 14.5V12.45C16.359 12.218 15.5 11.209 15.5 10Z" stroke="#6C6CFF" stroke-miterlimit="10" stroke-linecap="round" stroke-linejoin="round"/>
</svg>
