<svg width="16" height="16" viewBox="0 0 16 16" fill="none" xmlns="http://www.w3.org/2000/svg">
<g id="Frame">
<path id="Vector" d="M14.6668 6.66666L14.6668 3.99999C14.6668 3.64637 14.5264 3.30723 14.2763 3.05718C14.0263 2.80713 13.6871 2.66666 13.3335 2.66666L2.66683 2.66666C1.9335 2.66666 1.34016 3.25999 1.34016 3.99999L1.34016 6.66666C2.0735 6.66666 2.66683 7.26666 2.66683 7.99999C2.66683 8.73332 2.0735 9.33332 1.3335 9.33332L1.3335 12C1.3335 12.7333 1.9335 13.3333 2.66683 13.3333L13.3335 13.3333C14.0668 13.3333 14.6668 12.7333 14.6668 12V9.33332C13.9335 9.33332 13.3335 8.73332 13.3335 7.99999C13.3335 7.26666 13.9335 6.66666 14.6668 6.66666ZM13.3335 5.69332C12.5402 6.15332 12.0002 7.01999 12.0002 7.99999C12.0002 8.97999 12.5402 9.84666 13.3335 10.3067V12L2.66683 12L2.66683 10.3067C3.46016 9.84666 4.00016 8.97999 4.00016 7.99999C4.00016 7.01332 3.46683 6.15332 2.6735 5.69332L2.66683 3.99999L13.3335 3.99999V5.69332ZM7.3335 9.99999H8.66683V11.3333H7.3335V9.99999ZM7.3335 7.33332H8.66683L8.66683 8.66666H7.3335L7.3335 7.33332ZM7.3335 4.66666H8.66683V5.99999H7.3335V4.66666Z" fill="#0EA776"/>
</g>
</svg>
