<svg width="12" height="12" viewBox="0 0 12 12" fill="none" xmlns="http://www.w3.org/2000/svg">
<path d="M8.12 3.875C7.84212 3.59576 7.51175 3.37425 7.1479 3.22323C6.78406 3.0722 6.39394 2.99463 6 2.99499V5.995L3.88 8.115C5.05 9.285 6.95 9.285 8.125 8.115C8.40345 7.83647 8.62423 7.50577 8.77471 7.14181C8.92518 6.77786 9.0024 6.38779 9.00193 5.99396C9.00147 5.60012 8.92333 5.21024 8.772 4.84664C8.62067 4.48304 8.3991 4.15286 8.12 3.875ZM6 0.994995C3.24 0.994995 1 3.235 1 5.995C1 8.755 3.24 10.995 6 10.995C8.76 10.995 11 8.755 11 5.995C11 3.235 8.76 0.994995 6 0.994995ZM6 9.995C3.79 9.995 2 8.205 2 5.995C2 3.785 3.79 1.995 6 1.995C8.21 1.995 10 3.785 10 5.995C10 8.205 8.21 9.995 6 9.995Z" fill="#323842"/>
</svg>
