<svg width="24" height="24" viewBox="0 0 24 24" fill="none" xmlns="http://www.w3.org/2000/svg">
<path d="M17.9902 19.2814C17.8744 17.2346 16.707 16.5848 14.9996 16.0157C13.695 15.5811 13.3359 14.2114 13.2373 13.4846" stroke="#6C6CFF" stroke-width="2.05714" stroke-miterlimit="10"/>
<path d="M10.7615 13.4837C10.6647 14.2071 10.3124 15.5786 9.0001 16.0157C7.29267 16.5848 6.12353 17.2328 6.00781 19.2797" stroke="#6C6CFF" stroke-width="2.05714" stroke-miterlimit="10"/>
<path d="M11.9999 13.7143C10.1064 13.7143 8.57129 12.1791 8.57129 10.2857L8.57129 9.42857C8.57129 7.53514 10.1064 6 11.9999 6C13.8933 6 15.4284 7.53514 15.4284 9.42857V10.2857C15.4284 12.1791 13.8933 13.7143 11.9999 13.7143Z" stroke="#6C6CFF" stroke-width="2.05714" stroke-miterlimit="10" stroke-linecap="square"/>
<path d="M11.9999 21.4286C17.2071 21.4286 21.4284 17.2072 21.4284 12C21.4284 6.79273 17.2071 2.57141 11.9999 2.57141C6.7926 2.57141 2.57129 6.79273 2.57129 12C2.57129 17.2072 6.7926 21.4286 11.9999 21.4286Z" stroke="#6C6CFF" stroke-width="2.05714" stroke-miterlimit="10" stroke-linecap="square"/>
</svg>
