<svg width="62" height="23" viewBox="0 0 62 23" fill="none" xmlns="http://www.w3.org/2000/svg">
<g clip-path="url(#clip0_1_3754)">
<path d="M57.8226 2.17236H53.9249C52.7463 2.17236 51.8399 2.53952 51.2961 3.7328L43.8633 20.8974H49.1209C49.1209 20.8974 50.0273 18.6027 50.2084 18.0519C50.7524 18.0519 55.9189 18.0519 56.6443 18.0519C56.8253 18.6945 57.2785 20.8056 57.2785 20.8056H61.9921L57.8226 2.17236ZM51.6589 14.1968C52.1121 13.0953 53.6528 8.96478 53.6528 8.96478C53.6528 9.05657 54.106 7.86333 54.2873 7.22079L54.65 8.87299C54.65 8.87299 55.647 13.3707 55.8283 14.2886H51.6589V14.1968Z" fill="#3362AB"/>
<path d="M44.2287 14.7476C44.2287 18.6028 40.7843 21.1729 35.4361 21.1729C33.1704 21.1729 30.9948 20.7139 29.8164 20.1632L30.5416 15.9408L31.1761 16.2162C32.8077 16.9505 33.8955 17.2259 35.8894 17.2259C37.3399 17.2259 38.8809 16.6752 38.8809 15.3901C38.8809 14.564 38.2463 14.0133 36.2521 13.0954C34.3487 12.1775 31.8107 10.7089 31.8107 8.04695C31.8107 4.37537 35.3456 1.89706 40.331 1.89706C42.2344 1.89706 43.866 2.26423 44.8632 2.72318L44.1382 6.76191L43.7755 6.39475C42.869 6.02759 41.6907 5.66043 39.9683 5.66043C38.0649 5.75222 37.1585 6.57833 37.1585 7.31265C37.1585 8.13874 38.2463 8.78127 39.9683 9.60738C42.869 10.9842 44.2287 12.5446 44.2287 14.7476Z" fill="#3362AB"/>
<path d="M0 2.36961L0.0906434 2.00244H7.88597C8.97369 2.00244 9.78946 2.36961 10.0614 3.56285L11.7836 11.8239C10.0614 7.41801 6.07309 3.83822 0 2.36961Z" fill="#F9B50B"/>
<path d="M22.7641 2.17941L14.8781 20.8127H9.53019L4.99805 5.20845C8.2612 7.31963 10.9805 10.624 11.9776 12.9188L12.5214 14.8464L17.4162 2.08762H22.7641V2.17941Z" fill="#3362AB"/>
<path d="M24.8463 2.08762H29.8317L26.6592 20.8127H21.6738L24.8463 2.08762Z" fill="#3362AB"/>
</g>
<defs>
<clipPath id="clip0_1_3754">
<rect width="62" height="23" fill="white"/>
</clipPath>
</defs>
</svg>
