<svg width="35" height="35" viewBox="0 0 35 35" fill="none" xmlns="http://www.w3.org/2000/svg">
<path d="M18.529 0.259C18.354 -0.154 17.948 -0.42 17.5 -0.42C17.052 -0.42 16.646 -0.154 16.471 0.259L13.384 7.462C13.146 8.022 13.02 8.617 13.02 9.226V14.616L2.94 20.496V19.18C2.94 18.249 2.191 17.5 1.26 17.5C0.329002 17.5 -0.419998 18.249 -0.419998 19.18V23.1V25.34V27.02C-0.419998 27.951 0.329002 28.7 1.26 28.7C2.191 28.7 2.94 27.951 2.94 27.02V26.46H13.02V28.749L8.925 32.34C8.68 32.55 8.54 32.858 8.54 33.18V34.3C8.54 34.916 9.044 35.42 9.66 35.42H16.38V30.94C16.38 30.324 16.884 29.82 17.5 29.82C18.116 29.82 18.62 30.324 18.62 30.94V35.42H25.34C25.956 35.42 26.46 34.916 26.46 34.3V33.18C26.46 32.858 26.32 32.55 26.075 32.34L21.98 28.749V26.46H32.06V27.02C32.06 27.951 32.809 28.7 33.74 28.7C34.671 28.7 35.42 27.951 35.42 27.02V25.34V23.1V19.18C35.42 18.249 34.671 17.5 33.74 17.5C32.809 17.5 32.06 18.249 32.06 19.18V20.496L21.98 14.616V9.226C21.98 8.617 21.854 8.022 21.616 7.462L18.529 0.259Z" fill="#11D396"/>
</svg>
